Coordinates
version=1
nRows=13
nColumns=40
inDegrees=yes

Units are S.I. units (second, meters, Newtons, ...)
If the header above contains a line with 'inDegrees', this indicates whether rotational values are in degrees (yes) or radians (no).

endheader
time	pelvis_tilt	pelvis_list	pelvis_rotation	pelvis_tx	pelvis_ty	pelvis_tz	hip_flexion_r	hip_adduction_r	hip_rotation_r	knee_angle_r	knee_angle_r_beta	ankle_angle_r	subtalar_angle_r	mtp_angle_r	hip_flexion_l	hip_adduction_l	hip_rotation_l	knee_angle_l	knee_angle_l_beta	ankle_angle_l	subtalar_angle_l	mtp_angle_l	lumbar_extension	lumbar_bending	lumbar_rotation	arm_flex_r	arm_add_r	arm_rot_r	elbow_flex_r	pro_sup_r	wrist_flex_r	wrist_dev_r	arm_flex_l	arm_add_l	arm_rot_l	elbow_flex_l	pro_sup_l	wrist_flex_l	wrist_dev_l
      8.65000000	     87.93872456	     89.83886143	     87.93944945	      0.26376022	      0.60767829	      0.88989818	     11.37799951	     -9.46884560	     -8.63330155	     11.25071005	      0.19636193	      2.85170965	      0.00000000	      0.00000000	      6.67960138	    -11.70060080	    -16.04163718	      7.00989959	      0.12234583	      1.36378820	      0.00000000	      0.00000000	     -3.09560615	     -3.40169941	      6.71478924	     12.95833120	     -1.07859766	      7.07308097	      9.51497041	     34.17464980	      0.00000000	      0.00000000	     15.02586864	      2.22548092	    -40.16408411	     16.95739261	     33.83345436	      0.00000000	      0.00000000
      8.65500000	     87.94679701	     89.83903682	     87.94775929	      0.26364725	      0.60758928	      0.88987732	     11.37454567	     -9.47793052	     -8.63016979	     11.26609692	      0.19663049	      2.87329458	      0.00000000	      0.00000000	      6.67039190	    -11.69119007	    -16.01250005	      7.00198241	      0.12220765	      1.38156805	      0.00000000	      0.00000000	     -3.05940809	     -3.38258027	      6.69835931	     12.94349539	     -1.08317369	      7.06811096	      9.49821149	     34.16503976	      0.00000000	      0.00000000	     14.99695273	      2.23818261	    -40.15948065	     16.94322362	     33.82577554	      0.00000000	      0.00000000
      8.66000000	     87.94570901	     89.83860360	     87.94687061	      0.26360122	      0.60755107	      0.88988462	     11.38317043	     -9.49005000	     -8.65475494	     11.28524526	      0.19696469	      2.88680697	      0.00000000	      0.00000000	      6.66034860	    -11.68875688	    -15.99838216	      6.99067490	      0.12201029	      1.39880302	      0.00000000	      0.00000000	     -3.02758259	     -3.36758805	      6.69313735	     12.93837315	     -1.08702482	      7.06363286	      9.48731183	     34.15604397	      0.00000000	      0.00000000	     14.96956546	      2.24516595	    -40.15619497	     16.93241038	     33.81846110	      0.00000000	      0.00000000
      8.66500000	     87.94760637	     89.83912382	     87.94896409	      0.26346037	      0.60750056	      0.88988493	     11.38335050	     -9.49676700	     -8.66936565	     11.30830601	      0.19736717	      2.89992982	      0.00000000	      0.00000000	      6.64947507	    -11.68380526	    -15.97944905	      6.98408970	      0.12189536	      1.42014025	      0.00000000	      0.00000000	     -2.98237053	     -3.35177171	      6.68980210	     12.92279588	     -1.09154668	      7.05845340	      9.47247133	     34.14731336	      0.00000000	      0.00000000	     14.93563285	      2.25281262	    -40.15547130	     16.92011264	     33.81144622	      0.00000000	      0.00000000
      8.67000000	     87.96481108	     89.83983461	     87.96645155	      0.26327572	      0.60734526	      0.88984088	     11.36934793	     -9.51115920	     -8.66483860	     11.32931832	      0.19773391	      2.92352082	      0.00000000	      0.00000000	      6.64665399	    -11.67127988	    -15.96041673	      6.98677736	      0.12194227	      1.43530736	      0.00000000	      0.00000000	     -2.92774090	     -3.32815916	      6.66819623	     12.89798501	     -1.10552154	      7.05113122	      9.45229992	     34.13757714	      0.00000000	      0.00000000	     14.90110883	      2.27029876	    -40.15395041	     16.90682895	     33.80400717	      0.00000000	      0.00000000
      8.67500000	     87.97329450	     89.84061769	     87.97516170	      0.26313981	      0.60725563	      0.88982504	     11.36488090	     -9.52273324	     -8.67451484	     11.34716280	      0.19804535	      2.94847690	      0.00000000	      0.00000000	      6.64160079	    -11.67056667	    -15.93542520	      6.99355178	      0.12206051	      1.45333519	      0.00000000	      0.00000000	     -2.87774823	     -3.31140809	      6.65524176	     12.87754016	     -1.11347203	      7.04426339	      9.43572001	     34.12766856	      0.00000000	      0.00000000	     14.86172809	      2.28208297	    -40.15391116	     16.89378253	     33.79614661	      0.00000000	      0.00000000
      8.68000000	     87.99294907	     89.84055205	     87.99504242	      0.26304817	      0.60706890	      0.88981079	     11.35884004	     -9.54586097	     -8.69098191	     11.36728034	      0.19839647	      2.97013791	      0.00000000	      0.00000000	      6.65822200	    -11.65891156	    -15.93566431	      7.00948399	      0.12233857	      1.47077659	      0.00000000	      0.00000000	     -2.83960182	     -3.28693952	      6.62489061	     12.86000623	     -1.12913202	      7.03616198	      9.42029334	     34.11748442	      0.00000000	      0.00000000	     14.83076859	      2.30276926	    -40.15146723	     16.88340461	     33.78835300	      0.00000000	      0.00000000
      8.68500000	     87.99875115	     89.84042134	     88.00120198	      0.26291170	      0.60700956	      0.88980316	     11.35992413	     -9.55441807	     -8.72030258	     11.38803620	      0.19875873	      2.98650406	      0.00000000	      0.00000000	      6.66300835	    -11.65630211	    -15.92539158	      7.03026495	      0.12270127	      1.48749373	      0.00000000	      0.00000000	     -2.79052453	     -3.27557912	      6.61041235	     12.84264299	     -1.13289737	      7.02970616	      9.40779155	     34.10852742	      0.00000000	      0.00000000	     14.79670416	      2.31619795	    -40.15143372	     16.87357397	     33.78125408	      0.00000000	      0.00000000
      8.69000000	     88.00171181	     89.84136859	     88.00421657	      0.26280441	      0.60694271	      0.88979158	     11.36270023	     -9.57505180	     -8.77786831	     11.41798792	      0.19928148	      3.00665512	      0.00000000	      0.00000000	      6.66438180	    -11.65798137	    -15.92749063	      7.05264142	      0.12309181	      1.51394392	      0.00000000	      0.00000000	     -2.75577622	     -3.26259058	      6.59571105	     12.83164523	     -1.13714557	      7.02179495	      9.39688542	     34.09652132	      0.00000000	      0.00000000	     14.76011984	      2.32793495	    -40.15004503	     16.86702933	     33.77185000	      0.00000000	      0.00000000
      8.69500000	     88.00197236	     89.84112488	     88.00445560	      0.26262398	      0.60697809	      0.88976789	     11.36470276	     -9.57717632	     -8.80063928	     11.45144240	      0.19986537	      3.02575928	      0.00000000	      0.00000000	      6.65122741	    -11.66212137	    -15.90270603	      7.06560485	      0.12331807	      1.54575764	      0.00000000	      0.00000000	     -2.69972961	     -3.26189974	      6.59624124	     12.80938754	     -1.13119173	      7.01525373	      9.38342934	     34.08634469	      0.00000000	      0.00000000	     14.72007908	      2.32670623	    -40.15218868	     16.86046213	     33.76385518	      0.00000000	      0.00000000
      8.70000000	     88.01010935	     89.84075837	     88.01243316	      0.26252897	      0.60691793	      0.88973407	     11.36725489	     -9.58883201	     -8.81863438	     11.47904464	      0.20034712	      3.04619172	      0.00000000	      0.00000000	      6.65339735	    -11.65568237	    -15.89791570	      7.07051643	      0.12340379	      1.57409256	      0.00000000	      0.00000000	     -2.66545040	     -3.25307111	      6.58924074	     12.78907085	     -1.13387643	      7.00829335	      9.37036691	     34.07694462	      0.00000000	      0.00000000	     14.67543074	      2.31767197	    -40.15422503	     16.85069067	     33.75619814	      0.00000000	      0.00000000
      8.70500000	     88.01743028	     89.84190657	     88.01955647	      0.26241393	      0.60685258	      0.88970623	     11.37073813	     -9.60104288	     -8.85532651	     11.50926314	      0.20087454	      3.07800448	      0.00000000	      0.00000000	      6.64057938	    -11.65246348	    -15.90484010	      7.06819176	      0.12336322	      1.60324071	      0.00000000	      0.00000000	     -2.63101625	     -3.24572013	      6.56629591	     12.77982174	     -1.13279276	      7.00013677	      9.36220593	     34.06418796	      0.00000000	      0.00000000	     14.65410954	      2.32859392	    -40.14775931	     16.85057649	     33.74649754	      0.00000000	      0.00000000
      8.71000000	     88.02331944	     89.84079376	     88.02548561	      0.26237724	      0.60682051	      0.88968018	     11.37256895	     -9.60931518	     -8.86696213	     11.52870486	      0.20121386	      3.09481914	      0.00000000	      0.00000000	      6.64077359	    -11.64937840	    -15.89935131	      7.06676632	      0.12333834	      1.61789122	      0.00000000	      0.00000000	     -2.60302646	     -3.24124709	      6.55962560	     12.76752957	     -1.13452456	      6.99430234	      9.35350419	     34.05575493	      0.00000000	      0.00000000	     14.62104742	      2.32355255	    -40.14696322	     16.84341184	     33.73962153	      0.00000000	      0.00000000
